<svg xmlns="http://www.w3.org/2000/svg" version="1.1" xmlns:xlink="http://www.w3.org/1999/xlink" width="512" height="512" x="0" y="0" viewBox="0 0 64 64" style="enable-background:new 0 0 512 512" xml:space="preserve" class=""><g><path d="M58 26.7v-5.6c0-.7-.4-1.3-1-1.6l-24.3-13c-.6-.3-1.2-.3-1.8 0l-24.2 13c-.6.3-1 1-1 1.6v5.6c0 1 .8 1.9 1.9 1.9v26.1c-1 0-1.9.8-1.9 1.9s.8 1.9 1.9 1.9h48.7c1 0 1.9-.8 1.9-1.9s-.8-1.9-1.9-1.9V28.6c.8 0 1.7-.8 1.7-1.9zM9.5 22.3l22.4-12 22.4 12v2.6H9.5zm7.4 32.4V37.2c0-.6.8-1.2 1.9-1.2s1.9.6 1.9 1.2v17.5zm13.1 0V37.2c0-.6.8-1.2 1.9-1.2s1.9.6 1.9 1.2v17.5zm13 0V37.2c0-.6.8-1.2 1.9-1.2s1.9.6 1.9 1.2v17.5zm9.4 0h-1.9V37.3c0-2.7-2.5-4.9-5.6-4.9s-5.6 2.2-5.6 4.9v17.5h-1.9V37.3c0-2.7-2.5-4.9-5.6-4.9s-5.6 2.2-5.6 4.9v17.5h-1.9V37.3c0-2.7-2.5-4.9-5.6-4.9s-5.6 2.2-5.6 4.9v17.5h-1.9V28.6h41v26.1zm-6.8-35.3-13.1-5.6c-.5-.2-1-.2-1.5 0l-13.1 5.6c-.8.3-1.3 1.2-1.1 2.1s.9 1.5 1.8 1.5h26.1c.9 0 1.6-.6 1.8-1.5.4-.8 0-1.7-.9-2.1zm-17.7-.1 4-1.7 4 1.7z" fill="#000000" opacity="1" data-original="#000000" class=""></path></g></svg>