<svg xmlns="http://www.w3.org/2000/svg" version="1.1" xmlns:xlink="http://www.w3.org/1999/xlink" width="512" height="512" x="0" y="0" viewBox="0 0 682.667 682.667" style="enable-background:new 0 0 512 512" xml:space="preserve" class=""><g><defs><clipPath id="a" clipPathUnits="userSpaceOnUse"><path d="M0 512h512V0H0Z" fill="#000000" opacity="1" data-original="#000000"></path></clipPath></defs><g clip-path="url(#a)" transform="matrix(1.33333 0 0 -1.33333 0 682.667)"><path d="M0 0c16.03.01 29.94-11.91 32-28.23.73-5.83-.14-11.5-2.29-16.55-6.72 8.87-17.88 14.01-29.73 12.52-.78-.1-1.56-.22-2.32-.39" style="stroke-width:15;stroke-linecap:round;stroke-linejoin:round;stroke-miterlimit:10;stroke-dasharray:none;stroke-opacity:1" transform="translate(390.515 379.774)" fill="none" stroke="#000000" stroke-width="15" stroke-linecap="round" stroke-linejoin="round" stroke-miterlimit="10" stroke-dasharray="none" stroke-opacity="" data-original="#000000" class=""></path><path d="M0 0c-.76.17-1.54.29-2.32.39-11.85 1.49-23.01-3.65-29.73-12.52-2.15 5.05-3.02 10.72-2.29 16.55 2.06 16.32 15.97 28.24 32 28.23" style="stroke-width:15;stroke-linecap:round;stroke-linejoin:round;stroke-miterlimit:10;stroke-dasharray:none;stroke-opacity:1" transform="translate(123.729 347.124)" fill="none" stroke="#000000" stroke-width="15" stroke-linecap="round" stroke-linejoin="round" stroke-miterlimit="10" stroke-dasharray="none" stroke-opacity="" data-original="#000000" class=""></path><path d="M0 0v20.8c0 28.01-22.78 50.8-50.79 50.8-15.92 0-28.82 12.9-28.82 28.82 0 15.9 12.9 28.81 28.82 28.81h77.25c6.82 0 12.36-5.53 12.36-12.36a12.343 12.343 0 0 0-12.36-12.35h-8.42C42.2 84.61 57.63 54.48 57.63 20.8V.1" style="stroke-width:15;stroke-linecap:round;stroke-linejoin:round;stroke-miterlimit:10;stroke-dasharray:none;stroke-opacity:1" transform="translate(198.375 264.73)" fill="none" stroke="#000000" stroke-width="15" stroke-linecap="round" stroke-linejoin="round" stroke-miterlimit="10" stroke-dasharray="none" stroke-opacity="" data-original="#000000" class=""></path><path d="M0 0h-26.169" style="stroke-width:15;stroke-linecap:round;stroke-linejoin:round;stroke-miterlimit:10;stroke-dasharray:none;stroke-opacity:1" transform="translate(216.41 369.246)" fill="none" stroke="#000000" stroke-width="15" stroke-linecap="round" stroke-linejoin="round" stroke-miterlimit="10" stroke-dasharray="none" stroke-opacity="" data-original="#000000" class=""></path><path d="M0 0v20.7c0 33.68 15.43 63.81 39.59 83.72h-8.42a12.342 12.342 0 0 0-12.359 12.35c0 6.83 5.54 12.36 12.359 12.36h77.25c15.92 0 28.82-12.91 28.82-28.81 0-15.92-12.9-28.82-28.82-28.82-28.01 0-50.79-22.79-50.79-50.8V-.1" style="stroke-width:15;stroke-linecap:round;stroke-linejoin:round;stroke-miterlimit:10;stroke-dasharray:none;stroke-opacity:1" transform="translate(256.005 264.83)" fill="none" stroke="#000000" stroke-width="15" stroke-linecap="round" stroke-linejoin="round" stroke-miterlimit="10" stroke-dasharray="none" stroke-opacity="" data-original="#000000" class=""></path><path d="M0 0h26.169" style="stroke-width:15;stroke-linecap:round;stroke-linejoin:round;stroke-miterlimit:10;stroke-dasharray:none;stroke-opacity:1" transform="translate(295.6 369.246)" fill="none" stroke="#000000" stroke-width="15" stroke-linecap="round" stroke-linejoin="round" stroke-miterlimit="10" stroke-dasharray="none" stroke-opacity="" data-original="#000000" class=""></path><path d="M0 0h11.859" style="stroke-width:15;stroke-linecap:round;stroke-linejoin:round;stroke-miterlimit:10;stroke-dasharray:none;stroke-opacity:1" transform="translate(148.357 369.246)" fill="none" stroke="#000000" stroke-width="15" stroke-linecap="round" stroke-linejoin="round" stroke-miterlimit="10" stroke-dasharray="none" stroke-opacity="" data-original="#000000" class=""></path><path d="M0 0h11.858" style="stroke-width:15;stroke-linecap:round;stroke-linejoin:round;stroke-miterlimit:10;stroke-dasharray:none;stroke-opacity:1" transform="translate(359.274 369.246)" fill="none" stroke="#000000" stroke-width="15" stroke-linecap="round" stroke-linejoin="round" stroke-miterlimit="10" stroke-dasharray="none" stroke-opacity="" data-original="#000000" class=""></path><path d="M0 0c1.359-.2 2.75-.3 4.17-.3 8.019 0 15.28 3.25 20.53 8.5 5.26 5.26 8.51 12.52 8.51 20.53 0 8.02-3.25 15.28-8.51 20.53a28.914 28.914 0 0 1-20.53 8.51c-16.03 0-29.03-13-29.03-29.04 0-2.91.43-5.72 1.24-8.37" style="stroke-width:15;stroke-linecap:round;stroke-linejoin:round;stroke-miterlimit:10;stroke-dasharray:none;stroke-opacity:1" transform="translate(426.785 28.64)" fill="none" stroke="#000000" stroke-width="15" stroke-linecap="round" stroke-linejoin="round" stroke-miterlimit="10" stroke-dasharray="none" stroke-opacity="" data-original="#000000" class=""></path><path d="M0 0v-18.73l37.729-9.43C41.33-21.94 48.05-17.75 55.75-17.75c5.75 0 10.97-2.33 14.74-6.1 3.77-3.78 6.1-8.98 6.1-14.74s-2.33-10.96-6.1-14.74c-3.77-3.77-8.99-6.1-14.74-6.1-5.17 0-9.89 1.89-13.53 5.01l-57.37 14.33a12.185 12.185 0 0 0-9.24 11.83V0" style="stroke-width:15;stroke-linecap:round;stroke-linejoin:round;stroke-miterlimit:10;stroke-dasharray:none;stroke-opacity:1" transform="translate(350.205 66.93)" fill="none" stroke="#000000" stroke-width="15" stroke-linecap="round" stroke-linejoin="round" stroke-miterlimit="10" stroke-dasharray="none" stroke-opacity="" data-original="#000000" class=""></path><path d="M0 0v-28.26c0-5.6-3.81-10.48-9.24-11.83L-67.35-54.6c-.99-.25-1.99-.37-2.96-.37h-.03a21.04 21.04 0 0 0-5.93-3.27c-2.17-.77-4.5-1.19-6.93-1.19-5.75 0-10.97 2.33-14.74 6.1-3.77 3.78-6.1 8.98-6.1 14.74s2.33 10.96 6.1 14.74c3.77 3.77 8.99 6.1 14.74 6.1 7.98 0 14.91-4.49 18.41-11.07l40.4 10.09V0" style="stroke-width:15;stroke-linecap:round;stroke-linejoin:round;stroke-miterlimit:10;stroke-dasharray:none;stroke-opacity:1" transform="translate(188.515 66.93)" fill="none" stroke="#000000" stroke-width="15" stroke-linecap="round" stroke-linejoin="round" stroke-miterlimit="10" stroke-dasharray="none" stroke-opacity="" data-original="#000000" class=""></path><path d="m0 0 23.28-77.14c3.1-10.27-4.59-20.62-15.31-20.62A16.034 16.034 0 0 0-3.2-93.22l-16.72 16.3-16.72-16.3a16.003 16.003 0 0 0-11.17-4.54c-9.09 0-16 7.44-16 15.97 0 1.53.22 3.09.69 4.65L-39.84 0" style="stroke-width:15;stroke-linecap:round;stroke-linejoin:round;stroke-miterlimit:10;stroke-dasharray:none;stroke-opacity:1" transform="translate(275.925 105.26)" fill="none" stroke="#000000" stroke-width="15" stroke-linecap="round" stroke-linejoin="round" stroke-miterlimit="10" stroke-dasharray="none" stroke-opacity="" data-original="#000000" class=""></path><path d="M0 0v-28.78c0-4.28-1.73-8.14-4.53-10.95-2.8-2.8-6.68-4.53-10.95-4.53-8.54 0-15.47 6.93-15.47 15.48 0-8.65-7.09-15.63-15.77-15.48-8.52.16-15.18 7.47-15.18 15.99v25.93c0 17.35 13.68 31.5 30.85 32.25" style="stroke-width:15;stroke-linecap:round;stroke-linejoin:round;stroke-miterlimit:10;stroke-dasharray:none;stroke-opacity:1" transform="translate(207.275 110.84)" fill="none" stroke="#000000" stroke-width="15" stroke-linecap="round" stroke-linejoin="round" stroke-miterlimit="10" stroke-dasharray="none" stroke-opacity="" data-original="#000000" class=""></path><path d="M0 0h.899C18.72 0 33.18-14.45 33.18-32.28v-25.93c0-8.52-6.67-15.83-15.19-15.99-8.68-.15-15.761 6.83-15.761 15.48 0-8.55-6.929-15.48-15.479-15.48-4.271 0-8.15 1.73-10.95 4.53-2.8 2.81-4.53 6.67-4.53 10.95v29.5" style="stroke-width:15;stroke-linecap:round;stroke-linejoin:round;stroke-miterlimit:10;stroke-dasharray:none;stroke-opacity:1" transform="translate(335.785 140.78)" fill="none" stroke="#000000" stroke-width="15" stroke-linecap="round" stroke-linejoin="round" stroke-miterlimit="10" stroke-dasharray="none" stroke-opacity="" data-original="#000000" class=""></path><path d="M0 0c13.21-4.51 28.74-1.08 38.471 10.96.099.13.199.25.3.37 8.309 10.42 7.319 26.88-1.59 36.79a22.812 22.812 0 0 0-5.891 15.33c0 6.33 2.57 12.06 6.72 16.21s9.881 6.72 16.211 6.72h89.17c12.429 0 23.019-9.67 23.469-22.1.46-13.04-9.98-23.76-22.92-23.76h-28.62l23.8-5.95c12.14-3.04 20.03-15.13 17.311-27.34-2.391-10.75-11.901-17.97-22.361-17.97-1.84 0-3.719.23-5.58.69L105.9-4.4l8.281-5.52c10.519-7.02 13.84-21.27 6.939-31.87-4.41-6.77-11.76-10.43-19.25-10.43-4.37 0-8.78 1.25-12.689 3.85l-11.75 7.83 4.269-6.4c7.05-10.58 4.62-25.11-5.92-32.22a22.767 22.767 0 0 0-12.809-3.93c-7.401 0-14.681 3.58-19.101 10.21-5.99 8.32-15.59 13.16-25.74 13.16-.85 0-1.72-.03-2.58-.1-4.75-.38-10.09-.7-15.55-.8" style="stroke-width:15;stroke-linecap:round;stroke-linejoin:round;stroke-miterlimit:10;stroke-dasharray:none;stroke-opacity:1" transform="translate(337.635 222.78)" fill="none" stroke="#000000" stroke-width="15" stroke-linecap="round" stroke-linejoin="round" stroke-miterlimit="10" stroke-dasharray="none" stroke-opacity="" data-original="#000000" class=""></path><path d="M0 0h-27.31c-12.43 0-23.02-9.67-23.47-22.1-.46-13.04 9.98-23.76 22.92-23.76H.76l-23.8-5.95c-12.14-3.04-20.03-15.13-17.31-27.34 2.39-10.75 11.9-17.97 22.36-17.97 1.84 0 3.72.23 5.58.69l22.59 5.65L1.9-96.3c-10.52-7.02-13.84-21.27-6.94-31.87 4.41-6.77 11.76-10.43 19.25-10.43 4.37 0 8.78 1.25 12.69 3.85l11.75 7.83-4.27-6.4c-7.05-10.58-4.62-25.11 5.92-32.22 3.93-2.66 8.39-3.93 12.81-3.93 7.4 0 14.68 3.58 19.1 10.21 5.99 8.32 15.59 13.16 25.74 13.16.85 0 1.72-.03 2.58-.1 4.75-.38 10.09-.7 15.55-.8h.01" style="stroke-width:15;stroke-linecap:round;stroke-linejoin:round;stroke-miterlimit:10;stroke-dasharray:none;stroke-opacity:1" transform="translate(58.28 309.16)" fill="none" stroke="#000000" stroke-width="15" stroke-linecap="round" stroke-linejoin="round" stroke-miterlimit="10" stroke-dasharray="none" stroke-opacity="" data-original="#000000" class=""></path><path d="M0 0h31.86c6.33 0 12.06-2.57 16.21-6.72s6.72-9.88 6.72-16.21c0-5.9-2.23-11.27-5.89-15.33-8.91-9.91-9.9-26.37-1.59-36.79.1-.12.2-.24.3-.37 9.73-12.05 25.27-15.47 38.48-10.96" style="stroke-width:15;stroke-linecap:round;stroke-linejoin:round;stroke-miterlimit:10;stroke-dasharray:none;stroke-opacity:1" transform="translate(88.28 309.16)" fill="none" stroke="#000000" stroke-width="15" stroke-linecap="round" stroke-linejoin="round" stroke-miterlimit="10" stroke-dasharray="none" stroke-opacity="" data-original="#000000" class=""></path><path d="M0 0v-85.15c0-24.89-20.35-44.27-45.24-44.29-17.067-.01-31.382-11.759-35.32-27.612a1.105 1.105 0 0 0-1.07-.848c-.511 0-.947.352-1.07.848-3.937 15.862-18.263 27.602-35.34 27.612-24.87.01-45.22 19.38-45.22 44.26V.01c0 14.459 11.721 26.18 26.18 26.18h110.891C-11.726 26.19 0 14.464 0 0Z" style="stroke-width:15;stroke-linecap:round;stroke-linejoin:round;stroke-miterlimit:10;stroke-dasharray:none;stroke-opacity:1" transform="translate(337.635 238.644)" fill="none" stroke="#000000" stroke-width="15" stroke-linecap="round" stroke-linejoin="round" stroke-miterlimit="10" stroke-dasharray="none" stroke-opacity="" data-original="#000000" class=""></path><path d="M0 0v-5.74c0-10.8-8.89-19.28-20.26-19.29-13.48 0-26.11-4.37-36.37-11.91a61.331 61.331 0 0 1-36.39 11.91c-11.35.01-20.23 8.47-20.23 19.26v85.19c0 .65.52 1.18 1.17 1.18h110.9c.65 0 1.18-.53 1.18-1.19V30" style="stroke-width:15;stroke-linecap:round;stroke-linejoin:round;stroke-miterlimit:10;stroke-dasharray:none;stroke-opacity:1" transform="translate(312.63 159.23)" fill="none" stroke="#000000" stroke-width="15" stroke-linecap="round" stroke-linejoin="round" stroke-miterlimit="10" stroke-dasharray="none" stroke-opacity="" data-original="#000000" class=""></path><path d="M0 0h-42.757c-20.351 0-35.35-19.027-30.598-38.816l5.67-23.61h92.612l5.671 23.61C35.35-19.027 20.351 0 0 0Z" style="stroke-width:15;stroke-linecap:round;stroke-linejoin:round;stroke-miterlimit:10;stroke-dasharray:none;stroke-opacity:1" transform="translate(277.384 481.382)" fill="none" stroke="#000000" stroke-width="15" stroke-linecap="round" stroke-linejoin="round" stroke-miterlimit="10" stroke-dasharray="none" stroke-opacity="" data-original="#000000" class=""></path><path d="M0 0v23.118" style="stroke-width:15;stroke-linecap:round;stroke-linejoin:round;stroke-miterlimit:10;stroke-dasharray:none;stroke-opacity:1" transform="translate(256.005 481.382)" fill="none" stroke="#000000" stroke-width="15" stroke-linecap="round" stroke-linejoin="round" stroke-miterlimit="10" stroke-dasharray="none" stroke-opacity="" data-original="#000000" class=""></path><path d="m0 0 10.057-62.426" style="stroke-width:15;stroke-linecap:round;stroke-linejoin:round;stroke-miterlimit:10;stroke-dasharray:none;stroke-opacity:1" transform="translate(234.626 481.382)" fill="none" stroke="#000000" stroke-width="15" stroke-linecap="round" stroke-linejoin="round" stroke-miterlimit="10" stroke-dasharray="none" stroke-opacity="" data-original="#000000" class=""></path><path d="m0 0-10.058-62.426" style="stroke-width:15;stroke-linecap:round;stroke-linejoin:round;stroke-miterlimit:10;stroke-dasharray:none;stroke-opacity:1" transform="translate(277.384 481.382)" fill="none" stroke="#000000" stroke-width="15" stroke-linecap="round" stroke-linejoin="round" stroke-miterlimit="10" stroke-dasharray="none" stroke-opacity="" data-original="#000000" class=""></path><path d="M0 0h-116.414" style="stroke-width:15;stroke-linecap:round;stroke-linejoin:round;stroke-miterlimit:10;stroke-dasharray:none;stroke-opacity:1" transform="translate(314.212 418.956)" fill="none" stroke="#000000" stroke-width="15" stroke-linecap="round" stroke-linejoin="round" stroke-miterlimit="10" stroke-dasharray="none" stroke-opacity="" data-original="#000000" class=""></path><path d="M0 0v35.736" style="stroke-width:15;stroke-linecap:round;stroke-linejoin:round;stroke-miterlimit:10;stroke-dasharray:none;stroke-opacity:1" transform="translate(430.958 86.408)" fill="none" stroke="#000000" stroke-width="15" stroke-linecap="round" stroke-linejoin="round" stroke-miterlimit="10" stroke-dasharray="none" stroke-opacity="" data-original="#000000" class=""></path><path d="M0 0h24.979" style="stroke-width:15;stroke-linecap:round;stroke-linejoin:round;stroke-miterlimit:10;stroke-dasharray:none;stroke-opacity:1" transform="translate(418.469 109.276)" fill="none" stroke="#000000" stroke-width="15" stroke-linecap="round" stroke-linejoin="round" stroke-miterlimit="10" stroke-dasharray="none" stroke-opacity="" data-original="#000000" class=""></path><path d="m0 0-28.19 47.05" style="stroke-width:15;stroke-linecap:round;stroke-linejoin:round;stroke-miterlimit:10;stroke-dasharray:none;stroke-opacity:1" transform="translate(94.605 46.23)" fill="none" stroke="#000000" stroke-width="15" stroke-linecap="round" stroke-linejoin="round" stroke-miterlimit="10" stroke-dasharray="none" stroke-opacity="" data-original="#000000" class=""></path><path d="M0 0c0 7.083-5.742 12.825-12.825 12.825-7.083 0-12.824-5.742-12.824-12.825 0-7.083 5.741-12.825 12.824-12.825S0-7.083 0 0Z" style="stroke-width:15;stroke-linecap:round;stroke-linejoin:round;stroke-miterlimit:10;stroke-dasharray:none;stroke-opacity:1" transform="translate(72.647 104.276)" fill="none" stroke="#000000" stroke-width="15" stroke-linecap="round" stroke-linejoin="round" stroke-miterlimit="10" stroke-dasharray="none" stroke-opacity="" data-original="#000000" class=""></path></g></g></svg>